# xmcd CD database file
#
# Track frame offsets:
#	150
#	51330
#	108427
#	134380
#	167165
#	215857
#	240955
#
# Disc length: 3554 seconds
#
# Revision: 0
# Processed by: cddbd v1.5.1PL0 Copyright (c) Steve Scherf et al.
# Submitted via: CDex 1.51
#
DISCID=630de007
DTITLE=Kenny Wheeler - Juergen Friedrich Quartet - Summerflood
DYEAR=1998
DGENRE=Jazz
TTITLE0=Inner Garden
TTITLE1=Summerflood
TTITLE2=Light In Green
TTITLE3=Opal
TTITLE4=Baghira
TTITLE5=The Right Mistake
TTITLE6=My Shy i
EXTD=YEAR: 1998
EXTT0=
EXTT1=
EXTT2=
EXTT3=
EXTT4=
EXTT5=
EXTT6=
PLAYORDER=
